<?xml version="1.0" encoding="utf-8"?>
<!-- Generator: Adobe Illustrator 21.0.0, SVG Export Plug-In . SVG Version: 6.00 Build 0)  -->
<svg version="1.1" id="Layer_1" xmlns="http://www.w3.org/2000/svg" xmlns:xlink="http://www.w3.org/1999/xlink" x="0px" y="0px"
	 viewBox="0 0 90 90" style="enable-background:new 0 0 90 90;" xml:space="preserve">
<style type="text/css">
	.st0{fill:#F35151;}
</style>
<path class="st0" d="M89.3,31.7c-0.4,11.1-5,21.1-12.9,29.4C68.2,69.7,58.9,77,48.7,83.1c-2.5,1.5-4.6,1.7-7.2,0.1
	C31,76.9,21.3,69.4,13,60.5C5.2,52.1,0.5,42.1,0.7,30.4C0.9,12.5,16.6,1.5,33.5,7.3c3.1,1.1,6,2.7,8.7,4.6c2.1,1.4,3.6,1.4,5.6-0.1
	C54.5,6.7,62,4.9,70.3,6.2c9.2,1.5,17.8,10.4,18.8,21.3C89.2,28.8,89.2,30,89.3,31.7z"/>
</svg>
